<svg xmlns="http://www.w3.org/2000/svg" width="223.719" height="60.459" viewBox="0 0 223.719 60.459">
  <g id="site_FX_O_Logo_W" transform="translate(0 0.01)">
    <path id="Path_1" data-name="Path 1" d="M475.572,76.244a3.5,3.5,0,0,1-1.577,1.811,6.014,6.014,0,0,1-3.1.847,5.676,5.676,0,0,1-3.855-1.373,4.823,4.823,0,0,1-1.694-2.891h16.209v1.606Zm-8.587-9.55a5.273,5.273,0,0,1,3.826-1.577,5.044,5.044,0,0,1,3.8,1.548,5.446,5.446,0,0,1,1.285,1.928H465.671a5.85,5.85,0,0,1,1.314-1.9ZM451.74,76.916a4.056,4.056,0,0,1-3.592,1.986,4.12,4.12,0,0,1-3.8-2.132,9.12,9.12,0,0,1-1.139-4.761,8.961,8.961,0,0,1,1.2-4.731,4.294,4.294,0,0,1,7.331-.146,8.665,8.665,0,0,1,1.343,4.907A8.941,8.941,0,0,1,451.74,76.916Zm-21.788,0a5.656,5.656,0,0,1-8.557,0,7.611,7.611,0,0,1-1.46-4.907,7.94,7.94,0,0,1,1.577-5.023,4.913,4.913,0,0,1,4.176-1.869,5.062,5.062,0,0,1,4.264,1.957,7.752,7.752,0,0,1,1.46,4.936A7.842,7.842,0,0,1,429.952,76.916ZM501.8,61.67a10.367,10.367,0,0,0-6.922-2.366,11.382,11.382,0,0,0-5.578,1.4,6.242,6.242,0,0,0-.935.584V59.918H481.53v5.111a13.425,13.425,0,0,0-1.168-1.694A11.659,11.659,0,0,0,470.84,59.1a12.156,12.156,0,0,0-9.609,4.089,12.89,12.89,0,0,0-2.19,3.563,11.287,11.287,0,0,0-2.629-4.235,10.272,10.272,0,0,0-7.623-3.183,10.6,10.6,0,0,0-4.644,1.051,9.463,9.463,0,0,0-.935.5v-.964h-6.834v4.936a10.857,10.857,0,0,0-2.044-2.424,12.973,12.973,0,0,0-17.29,0,12.631,12.631,0,0,0-3.943,9.638,12.528,12.528,0,0,0,3.943,9.638,13.011,13.011,0,0,0,17.319,0,11.57,11.57,0,0,0,2.015-2.453V93.534h6.834V83.166a6.754,6.754,0,0,0,1.022.526,11.635,11.635,0,0,0,4.731.993,10.54,10.54,0,0,0,10.164-7.126,12.355,12.355,0,0,0,2.1,3.329,12.2,12.2,0,0,0,9.609,4.089,13.342,13.342,0,0,0,7.331-2.015,10.415,10.415,0,0,0,3.359-3.417v4.644h6.834V70.023a4.754,4.754,0,0,1,4.936-5.082,4.748,4.748,0,0,1,3.417,1.256,4.912,4.912,0,0,1,1.519,3.855V84.159h6.834V69.205A9.27,9.27,0,0,0,501.8,61.67Z" transform="translate(-292.45 -41.846)" fill="#e95a0c"/>
    <g id="Group_1" data-name="Group 1" transform="translate(92.875 15.502)">
      <path id="Path_2" data-name="Path 2" d="M1.256,112.745a4.812,4.812,0,0,1,.146.613,3.138,3.138,0,0,1,.146-.613l.555-1.869h.73l.526,1.869a3.812,3.812,0,0,1,.146.613c.088-.35.088-.409.146-.613l.584-1.869h.73l-1.139,3.213H3.183l-.73-2.483-.73,2.483H1.081L0,110.876H.7Zm5.52-1.314a1.624,1.624,0,0,1,1.11-.409c.905,0,1.168.438,1.168,1.11v1.957H8.411v-1.84c0-.526-.2-.73-.7-.73a1.079,1.079,0,0,0-.789.321.922.922,0,0,0-.175.7v1.577H6.133v-4.089h.643Zm4.673.73h1.928a.832.832,0,0,0-.935-.818.93.93,0,0,0-.993.818m.993,1.46a.792.792,0,0,0,.876-.613h.643a1.462,1.462,0,0,1-1.548,1.081,1.474,1.474,0,0,1-1.606-1.606,1.519,1.519,0,0,1,1.665-1.606,1.4,1.4,0,0,1,1.548,1.519v.234h-2.57a.92.92,0,0,0,.993.993m3.972-2.249a1.358,1.358,0,0,1,1.11-.5,1.177,1.177,0,0,1,1.081.555,1.253,1.253,0,0,1,.088.672v1.986h-.643v-1.9c0-.584-.2-.818-.73-.818a.872.872,0,0,0-.847.467,1.345,1.345,0,0,0-.088.584v1.636h-.613v-3.125h.643Zm7.594-.029a1.5,1.5,0,0,1,1.11-.467.974.974,0,0,1,.935.467,1.5,1.5,0,0,1,1.11-.467c.847,0,1.139.438,1.139,1.081v2.132h-.643v-2.044c0-.467-.2-.672-.643-.672a.852.852,0,0,0-.789.438c-.088.146-.088.263-.088.613v1.665H25.5v-1.957c0-.584-.117-.759-.555-.759a.9.9,0,0,0-.876.526c-.058.117-.058.175-.058.526v1.665h-.643v-3.125h.643v.38Zm8.353,1.11c0-.7-.35-1.11-.964-1.11-.584,0-.964.409-.964,1.139,0,.7.35,1.139.964,1.139s.964-.438.964-1.168m.643.029a1.606,1.606,0,1,1-1.606-1.606A1.488,1.488,0,0,1,33,112.483m2.395-1.11a1.358,1.358,0,0,1,1.11-.5,1.177,1.177,0,0,1,1.081.555,1.253,1.253,0,0,1,.088.672v1.986h-.643v-1.9c0-.584-.2-.818-.73-.818a.872.872,0,0,0-.847.467,1.345,1.345,0,0,0-.088.584v1.636h-.613v-3.125H35.4Zm4.673.789H42a.832.832,0,0,0-.935-.818.93.93,0,0,0-.993.818m.993,1.46a.792.792,0,0,0,.876-.613h.643a1.462,1.462,0,0,1-1.548,1.081,1.488,1.488,0,0,1-1.606-1.606,1.519,1.519,0,0,1,1.665-1.606,1.4,1.4,0,0,1,1.548,1.519v.234h-2.57a.92.92,0,0,0,.993.993m5.286-2.745h.672l-1.4,3.446c-.175.409-.38.935-.964.935a2.877,2.877,0,0,1-.5-.058v-.5a1.466,1.466,0,0,0,.35.058c.292,0,.38-.088.613-.73l-1.314-3.154h.7l.935,2.453Zm15.917.467a1.5,1.5,0,0,1,1.11-.467.975.975,0,0,1,.935.467,1.52,1.52,0,0,1,1.139-.467c.847,0,1.139.438,1.139,1.081v2.132h-.643v-2.044c0-.467-.2-.672-.643-.672a.852.852,0,0,0-.789.438c-.088.146-.088.263-.088.613v1.665h-.643v-1.957c0-.584-.117-.759-.555-.759a.9.9,0,0,0-.876.526c-.058.117-.058.175-.058.526v1.665h-.672v-3.125h.643v.38Zm7.068,1.811c0,.292.263.467.7.467.584,0,1.051-.321,1.051-.7v-.409a5.982,5.982,0,0,0-1.373.234c-.263.058-.38.2-.38.409m.964-2.278c.847,0,1.431.2,1.431.964v1.431c0,.234.058.321.234.321h.175V114a1.167,1.167,0,0,1-.38.058c-.38,0-.555-.146-.584-.467a1.915,1.915,0,0,1-1.285.5c-.73,0-1.227-.38-1.227-.905,0-.993,1.519-1.022,2.453-1.11v-.146c0-.409-.234-.555-.789-.555-.526,0-.789.146-.818.555h-.672a.964.964,0,0,1,.2-.613,1.479,1.479,0,0,1,1.256-.438m4.79,1.431,1.46-1.2h.818l-1.373,1.11,1.4,1.869h-.759l-1.051-1.519-.5.38v1.139h-.613V110h.613Zm4.7-.146h1.928a.832.832,0,0,0-.935-.818.93.93,0,0,0-.993.818m.993,1.46a.792.792,0,0,0,.876-.613H82.3a1.624,1.624,0,0,1-3.154-.526,1.519,1.519,0,0,1,1.665-1.606,1.4,1.4,0,0,1,1.548,1.519v.234h-2.57a.92.92,0,0,0,.993.993m5.111,0c.467,0,.789-.175.789-.438,0-.146-.058-.2-.35-.292l-1.139-.409c-.467-.175-.643-.38-.643-.7,0-.526.555-.876,1.343-.876.73,0,1.343.321,1.343.964h-.613c0-.321-.263-.5-.759-.5-.409,0-.672.146-.672.35,0,.117.088.2.321.263l1.081.35c.613.2.759.38.759.759,0,.584-.584.993-1.46.993-.935,0-1.46-.38-1.46-1.081h.643c0,.438.234.613.818.613m7.623-2.278a1.5,1.5,0,0,1,1.11-.467.975.975,0,0,1,.935.467,1.52,1.52,0,0,1,1.139-.467c.847,0,1.139.438,1.139,1.081v2.132H97.2v-2.044c0-.467-.2-.672-.643-.672a.852.852,0,0,0-.789.438c-.088.146-.088.263-.088.613v1.665h-.643v-1.957c0-.584-.117-.759-.555-.759a.9.9,0,0,0-.876.526c-.058.117-.058.175-.058.526v1.665h-.672v-3.125h.643v.38Zm9.229,1.11c0-.7-.35-1.11-.964-1.11-.584,0-.964.409-.964,1.139,0,.7.35,1.139.964,1.139s.964-.438.964-1.168m.643.029a1.606,1.606,0,1,1-1.606-1.606,1.488,1.488,0,0,1,1.606,1.606m3.271-1.11a1.377,1.377,0,0,1,1.139-.5,1.177,1.177,0,0,1,1.081.555,1.253,1.253,0,0,1,.088.672v1.986h-.643v-1.9c0-.584-.2-.818-.73-.818a.872.872,0,0,0-.847.467,1.345,1.345,0,0,0-.088.584v1.636h-.643v-3.125h.643Zm5.257.789h1.928a.832.832,0,0,0-.935-.818.93.93,0,0,0-.993.818m.993,1.46a.792.792,0,0,0,.876-.613h.643a1.624,1.624,0,0,1-3.154-.526,1.519,1.519,0,0,1,1.665-1.606,1.4,1.4,0,0,1,1.548,1.519v.234h-2.57a.92.92,0,0,0,.993.993m6.162-2.745h.672l-1.4,3.446c-.175.409-.38.935-.964.935a2.878,2.878,0,0,1-.5-.058v-.5a1.466,1.466,0,0,0,.35.058c.292,0,.38-.088.613-.73l-1.314-3.154h.7l.935,2.453Z" transform="translate(0 -77.903)" fill="#000"/>
      <path id="Path_3" data-name="Path 3" d="M425.775,2.232V3.488h1.051a2.688,2.688,0,0,0,.555-.058.448.448,0,0,0,.292-.2.663.663,0,0,0,.088-.38.535.535,0,0,0-.2-.5,1.246,1.246,0,0,0-.7-.146h-1.081Zm-.613,3.622V1.648h1.723a2.324,2.324,0,0,1,1.11.234c.263.146.38.467.38.935a1.045,1.045,0,0,1-.117.555,1.04,1.04,0,0,1-.409.38.648.648,0,0,1,.38.35,1.776,1.776,0,0,1,.088.643c0,.263.029.5.029.643a1.268,1.268,0,0,0,.2.467h-.759a2.412,2.412,0,0,1-.088-.7,3.378,3.378,0,0,0-.029-.613.555.555,0,0,0-.2-.321,1.131,1.131,0,0,0-.643-.117h-1.051V5.854Zm4.585-2.074a3.253,3.253,0,0,0-.409-1.577A3.046,3.046,0,0,0,428.2,1.064a2.861,2.861,0,0,0-1.548-.409,3.141,3.141,0,0,0-1.548.409A3.272,3.272,0,0,0,423.964,2.2a3.252,3.252,0,0,0-.409,1.577,3.17,3.17,0,0,0,.409,1.577A2.85,2.85,0,0,0,425.1,6.5a2.861,2.861,0,0,0,1.548.409A3.142,3.142,0,0,0,428.2,6.5a3.083,3.083,0,0,0,1.548-2.716Zm.555,0a3.394,3.394,0,0,1-.292,1.431,3.184,3.184,0,0,1-.789,1.168,3.184,3.184,0,0,1-1.168.789,3.759,3.759,0,0,1-1.4.292A3.594,3.594,0,0,1,423.5,5.62a3.658,3.658,0,0,1,0-3.68A3.566,3.566,0,0,1,428.432.6a3.7,3.7,0,0,1,1.344,1.343,3.448,3.448,0,0,1,.526,1.84Z" transform="translate(-299.458 -0.1)" fill="#000"/>
    </g>
    <path id="Path_4" data-name="Path 4" d="M307.19,53h-9.434l-6.016,8.178L285.724,53H259V82.206h7.623V71.4h12.792V63.806H266.623V60.564h15.216l5.169,7.039-10.748,14.6h9.434l6.016-8.178,6.016,8.178h9.463L296.442,67.6Z" transform="translate(-183.356 -37.527)" fill="#000"/>
    <g id="Group_2" data-name="Group 2" transform="translate(0 -0.009)">
      <path id="Path_5" data-name="Path 5" d="M123.8,43.891a1.49,1.49,0,0,1,.584.876c-.175-.117-.964-.584-.964-.584-.175-.234.234-.38.38-.292m-.847.438a2.685,2.685,0,0,1,.759.2,9.541,9.541,0,0,0,.935.555,1.874,1.874,0,0,0-.5-1.343c-.584-.672-1.022-.35-1.168-.234a1.191,1.191,0,0,0-.38.584c0,.2.175.263.35.234m1.782-.964a.926.926,0,0,0,.175.146c.058.029.146-.029.146-.029l.146.146c.058.088.117.058.146,0,.029-.029.2-.029.146-.146s-.058-.175-.146-.175a.57.57,0,0,0-.2-.029c-.058,0-.058-.088-.2-.117s-.2-.029-.234,0c-.058.029-.117-.117-.234-.058a.345.345,0,0,0-.146.146s.146.175.2.175c.117,0,.175-.088.2-.058m1.694,1.49a.877.877,0,0,1,.321.526c-.117-.117-.643-.526-.643-.526-.117-.146.2-.088.321,0m.526.847c.175-.088-.263-.789-.409-1.022a2.381,2.381,0,0,0-.876-.7c-.234-.058-.613.467-.643.555-.2.643.292.438.964.584.613.146.789.672.964.584m-4.527-.555c-.088,0-.5-.058-.5-.058-.117-.058,0-.234.088-.234a1.134,1.134,0,0,1,.409.292m-.234-.613c-.117-.029-.38.146-.584.321-.234.175-.146.555-.146.555s.263-.088.409-.117c.2-.029.7.088.73-.029.088-.2-.321-.672-.409-.73m2.716.935a.6.6,0,0,1,.234.409c-.088-.058-.38-.263-.38-.263-.088-.117.058-.2.146-.146m-.5.5c.2,0,.292-.088.438-.088s.467.35.321-.058-.263-.905-.526-.555c-.029.058-.438.7-.234.7m6.571.613c0-.146.088-1.606.088-2.22A24.369,24.369,0,0,0,108.73,20a6.825,6.825,0,0,1-.73,1.782,22.541,22.541,0,0,1,21.262,22.576c0,.409-.058,1.46-.058,1.548.584.555,1.373.263,1.782.672" transform="translate(-76.457 -14.156)" fill="#e95a0c"/>
      <path id="Path_6" data-name="Path 6" d="M89.6,30.952c-.029.029-.029.058-.058.088a.524.524,0,0,1,.146.2,1.675,1.675,0,0,0,.117-.2c-.058-.029-.146-.058-.2-.088M65.973,4.316a4.764,4.764,0,0,1-1.957,2.512c-2.921,2.161-1.139-.088-2.336.526C61.3,7.09,63.608,5.572,63.7,5.426c.526.234,2.658-1.928.35-3.972.263.263,2.19,1.285,1.928,2.862M64.4,2.739c.292.905-.409,2.015-1.986,2.979S59.957,7.12,60.1,8.375c.058.526.467,1.869,2.891,1.46a6.819,6.819,0,0,0,4.965-3.943C68.952,3.936,69.04.957,64.425.139,60.716-.445,58,.87,58,1.016c.058.263,5.637-.672,6.4,1.723" transform="translate(-41.06 0.009)" fill="#e95a0c"/>
      <path id="Path_7" data-name="Path 7" d="M70.668,0a30.44,30.44,0,0,0-4.03.292,11.166,11.166,0,0,1,1.227.818c.935-.088,1.869-.146,2.8-.146A29.233,29.233,0,0,1,93.537,48.336c.058.38.117.847.175,1.314A30.2,30.2,0,0,0,70.668,0M57.5,13.961c.058.38-.438.146-.467.292-.058.2.38.38.584.38a.556.556,0,0,0,.467-.847C57.759,13.2,57,13.522,57,13.756c0,.146.467-.029.5.2M79.664,52.834A2.347,2.347,0,0,1,77.123,50.7c-.175-.672.555-1.782.555-1.782.117-.526,1.081.058,1.46.292s1.84.5,1.782.73-2.278.175-2.336.467,1.665.467,2.161.438c.584-.058.905,1.9-1.081,1.986m2.074-4c-2.132.088-5.432-1.811-5.432-1.811-.088.117-1.49,2.8-.584,4.965a4.006,4.006,0,0,0,4.644,2.19c1.285-.409,3.008-2.132,1.373-5.345" transform="translate(-40.353 0.003)" fill="#e95a0c"/>
      <path id="Path_8" data-name="Path 8" d="M65.691,72.406a2.328,2.328,0,0,1,.38,1.723c-.117.292-.526.467-.7.321-.38-.321-.876-1.081-.73-1.139.584-.234.7-1.256,1.051-.905m-1.314-8c-.058-.438-.029-1.314.5-.993s.935.088.905.263-.175.234-.35.35a3.461,3.461,0,0,0-.672.759c-.088.234-.292.058-.38-.38m-2.044-3.622c-.409-2.19,4.79-1.84,3.446-1.139,0,0-.964.5-1.168,1.022-.5,1.46-2.074,1.285-2.278.117M60.9,71.413a5.41,5.41,0,0,1-3.037.088c-1.285-.526,1.051-.526,2.512-1.9.818-.789,1.051-2.22,2.424-1.314,1.256.847-.993,2.8-1.9,3.125m-4.352-3.884a1.141,1.141,0,0,1,.146-1.285,2.885,2.885,0,0,1,2.015-.7,3.951,3.951,0,0,0,1.694-.5c.234-.117.467,2.22-1.577,2.8-1.11.321-2.015.117-2.278-.321m-1.081-8.441c.058.847-.905,1.46-1.343,1.139s-.263-2.22.117-3.534c1.11-3.972,4.5-5.462,5.432-5.345-.058.5-2.395,1.022-3.3,2.95a7.988,7.988,0,0,0-.905,4.79m-4.323,4.5c-3.271,4.176-9.755-2.074-1.9-7.272A18.273,18.273,0,0,0,54.1,51.319c.263,1.46-2.161,4.673-2.745,6.455-1.022,3.154,1.343,3.826-.2,5.812M41.041,75.736c-2.95-1.869-1.665-5.87-1.343-4.439.672,3.154,4.673,2.921,6.279,3.768,1.431.73-1.548,2.833-4.936.672m21.2-23.861c.847.234.409.905.117.73a2.5,2.5,0,0,0-1.782.35,11.623,11.623,0,0,0-2.1,1.986,2.5,2.5,0,0,0-.38,1.548,1.8,1.8,0,0,1-.117-1.4,5.845,5.845,0,0,1,2.19-2.687,3.123,3.123,0,0,1,2.074-.526m-1.9,6.4c.672-.2,1.4-.7,1.081-.117a2.542,2.542,0,0,1-2.336,1.2c-.993-.088-2.19-.905-2.161-1.782.058-.789.584-.847.847-.643s.905,1.84,2.57,1.343m4.819,4.147c.234.2.263.555,1.022.672,1.11.2.643.263.38.321a3.1,3.1,0,0,1-1.49-.175c-.38-.175-.759-.643-.672-.789.146-.35.526-.2.759-.029M66.07,69.6c.438-1.46-.672-3.417-.818-3.651-.146-.263-.321-.438-.292-.73A6.894,6.894,0,0,1,66.3,63.586a1.338,1.338,0,0,0,1.285-.35,1.983,1.983,0,0,0,.935-.263c.029-.029.058-.029.088-.058a6.277,6.277,0,0,1-.964.175,3.293,3.293,0,0,1-2.278-.818,1.135,1.135,0,0,1-.38-.876c.029-1.2,1.139-1.519,1.694-1.986a4.152,4.152,0,0,0,.935-1.577s.818-.146,1.84,1.46a2.189,2.189,0,0,0-.905-1.752,1.9,1.9,0,0,0-1.431-.234,3.335,3.335,0,0,0-2.979-.993,12.871,12.871,0,0,0-2.1.643c.146-.234.263-.467.38-.672a.5.5,0,0,1-.2.029.107.107,0,0,1-.088-.029l.029.029a2.742,2.742,0,0,1-.35.409,2.082,2.082,0,0,1-1.285.7c-.73.234-2.015-.321-2.1-1.11s.672-1.431,1.84-2.57a2.335,2.335,0,0,1,2.629-.643s.613.35.613.73c.029,0,.088.029.117.029s.058.029.088.029a2.485,2.485,0,0,0-1.4-2.716c-.672-.321-1.4.5-1.373.292a14.446,14.446,0,0,0-.409-6.805C58.915,40.046,55.264,36.278,49.627,34c2.833,1.752,10.865,13.727-5.2,22.167C29.68,63.936,34.323,73.341,39.055,76.232A22.518,22.518,0,0,1,21.911,54.386a22.919,22.919,0,0,1,.263-3.476c-.438-.088-1.168-1.081-1.665-.964a25.1,25.1,0,0,0-.409,4.439A24.371,24.371,0,0,0,50.153,78.014a7.83,7.83,0,0,1-1.168-1.577l-.088-.175c-1.373-2.775.672-6.63.672-6.63s4.118,3.037,6.016,2.891a5.119,5.119,0,0,1,.789,3.972,23.19,23.19,0,0,0,5.082-1.869,15.628,15.628,0,0,0,2.132,1.314c1.431.7,2.366.409,2.745-.058a4.514,4.514,0,0,0-.993-4.673,6.635,6.635,0,0,0,.73-1.606" transform="translate(-14.23 -24.067)" fill="#e95a0c"/>
      <path id="Path_9" data-name="Path 9" d="M54.469,63.1c-.117.175-.38-.146-.5-.088s-.321-.029-.321-.175.234-.263.5-.263a.39.39,0,0,1,.321.526m.146,1.811a2.438,2.438,0,0,0-.789.029c-.321.058-.234,0-.643-.029s-.643-.467-.555-.643a.6.6,0,0,1,.818-.321,3.834,3.834,0,0,1,.847.526,6.277,6.277,0,0,0,.7.2c.409.146-.117.292-.38.234m.73-2.044c.234-.088.409.234.409.35s-.175.088-.263.029c-.234-.2-.146-.38-.146-.38m-2.395-.35c-.321.292-1.811.905-1.84,1.665s1.314,1.694,2.891,1.46c1.577-.263,2.1-1.343,2.074-1.811A3.892,3.892,0,0,0,53.739,61a2.646,2.646,0,0,1-.789,1.519M44.89,58.9c.321,0,.38-.088.38-.292,0-.175-.117-.526-.2-.526-.146,0-.672.613-.672.613s.029.263.058.38c.029.146.263.234.263.088,0-.117-.146-.292.175-.263M30.258,86.324A29.173,29.173,0,0,1,7.915,38.25a6.4,6.4,0,0,1-.964-.35A30.192,30.192,0,0,0,49.942,79.986a5.688,5.688,0,0,1-1.11-.292,29.2,29.2,0,0,1-18.575,6.63m14.4-16.589c-.584-.321-.117-.643.146-.643s.146-.321-.088-.409c-.234-.117-1.256-.2-1.227.467.088.672,1.343.672,1.168.584" transform="translate(0 -26.828)" fill="#e95a0c"/>
      <path id="Path_10" data-name="Path 10" d="M45.762,21.859c-1.2,7.331-11.478,10.31-13.581,12.88-1.4-.876,6.688-8.324,7.886-10.923,1.694-3.651-.2-6.133,1.9-7.331,1.782-.993,4.585.759,3.8,5.374m-17,2.336c-1.285-1.373-.643-2.453-1.022-2.8-.467-.409-.643-.993.321-.847a2.931,2.931,0,0,0,2.249-.438c.964-.643.7-2.395,2.541-2.687,1.811-.263,3.183.234,2.833,2.512-.5,2.95-5.169,6.133-6.922,4.264M28,17.741c1.11-.905,1.9-.876,2.19-.467.584.73-.029,2.015-1.2,2.336-.321.088-1.782.263-2.1-.088-.263-.38.117-.964,1.11-1.782m-1.4,4.936c-.438.234-1.285-.643-1.84-.993-.584-.35-1.081-.175-1.928-.058-.847.088-2.044.029-2.161-.321-.2-.613.5-.789,1.49-.935.964-.175,1.577.35,1.986.35a2.464,2.464,0,0,1,1.9.292c.935.555.993,1.431.555,1.665m-1.986,4.79c-.818.613-2.483.175-2.483-.409,0-.613.789-.263,1.314-.263a.907.907,0,0,0,.905-1.285c-.146-.409-.146-1.227.5-.5a1.516,1.516,0,0,1-.234,2.453m-3.154-2.512c-.234.38-.905,1.11-1.519.993a2,2,0,0,0-1.519.234c-.409.234-1.928.905-1.986.146a2.634,2.634,0,0,1,1.577-2.483,6.08,6.08,0,0,1,2.775-.584c.555.117,1.343.5.672,1.694m.964-8.382c.73-.263.584.35.175.876-.409.555-.2,1.46-.438,1.723s-1.256.029-1.548-.409c-.5-.7,1.081-1.928,1.811-2.19m.35-3.242a14.583,14.583,0,0,1,3.1-1.343c.409-.175,1.694-.847,2.132-.438s-.5.847-.789,1.431a8.7,8.7,0,0,0-.438,3.008c.058.847-1.11-.35-1.373-1.022s-.175-.876-.993-.643c-.789.2-2.336-.467-1.636-.993M40.213,14.5c-2.278,1.606-3.884,1.373-5.228.613-.321-.175-.555-.35-.789-.5a5.524,5.524,0,0,1-.672.146,4.754,4.754,0,0,1-.905.088h0a2.326,2.326,0,0,1-2.57-2.044c-.146-1.46.584-2.015,1.548-2.6-1.665-.38-4.673.263-6.834,1.227C21.988,12.688,21.9,13.3,21.55,13.769s-.146,1.752-.234,2.1a6.529,6.529,0,0,1-1.081,1.548,2.834,2.834,0,0,0-.643,1.811,1.976,1.976,0,0,0,.643,1.11c-.2.38-.905,2.249-1.051,2.366-.292,0-.613.438-.73.584a3.085,3.085,0,0,0-2.366,3.1,2.7,2.7,0,0,0,2.57,2.745c.847,1.139,2.483,1.4,4.5,1.343a8.436,8.436,0,0,0,2.716-.613C18.834,40.7,28.53,51.445,32.356,53.606c-.847-1.373-9.142-12.354,7.623-21.35,13.435-7.214,8.441-18.429,2.8-19.977a11.109,11.109,0,0,1-2.57,2.22M31.889,6a30.352,30.352,0,0,0-9.7,5.4,4.906,4.906,0,0,0,1.314.146A28.85,28.85,0,0,1,33,6.613,5.918,5.918,0,0,0,31.889,6" transform="translate(-11.386 -4.245)" fill="#e95a0c"/>
      <path id="Path_11" data-name="Path 11" d="M40.313,14a3.939,3.939,0,0,1-2.8.935c1.928-.73.5-1.343.964-1.227.467.088.818-.058,2.19-.5s.759-.292-.35.789m1.168-2.074a9.477,9.477,0,0,1-1.46.146,4.838,4.838,0,0,0-1.051.263,5.96,5.96,0,0,1-1.2,1.227,7.208,7.208,0,0,1-1.957,1.11q.307.219.789.526c1.168.7,2.278.993,4.206-.555,1.928-1.519,2.541-2.716,2.22-2.921-.292-.175-.847.117-1.548.2M20.891,9.415c-.438.759-.847,1.373-.409,2.249a3.322,3.322,0,0,0,1.139,1.051c.613.321,1.168.613.759.613-1.256,0,.234,1.168-1.606-.146a2.483,2.483,0,0,1-.993-1.723,2.537,2.537,0,0,1,1.11-2.044m1.081,6.63a3.151,3.151,0,0,1,.321-1.752c.029-.058.058-.088.088-.146a3.448,3.448,0,0,1,1.051-1.139c-1.519-.555-2.395-1.314-2.512-2.044C20.6,9.006,25.652,7.225,25.594,7.05a7.811,7.811,0,0,0-2.687.234C20.044,7.984,18,9.853,18,12.19c0,1.986,2.278,3.242,3.972,3.855" transform="translate(-12.743 -4.944)" fill="#e95a0c"/>
    </g>
  </g>
</svg>
